<?xml version="1.0" encoding="utf-8"?>
<!-- Generator: Adobe Illustrator 25.0.1, SVG Export Plug-In . SVG Version: 6.00 Build 0)  -->
<svg version="1.2" baseProfile="tiny" id="Layer_1" xmlns="http://www.w3.org/2000/svg" xmlns:xlink="http://www.w3.org/1999/xlink"
	 x="0px" y="0px" viewBox="0 0 1000 800" overflow="visible" xml:space="preserve">
<rect x="15.7" y="-148.4" fill="none" width="986.8" height="986.8"/>
<polygon fill="#204169" points="477.7,284.5 487.3,349.7 208.8,352.1 208,479.3 293.9,478.8 293.8,568.3 483.2,566.9 444.6,647 
	127.8,647 35.9,479.5 103,266.8 334.4,205.9 "/>
<polygon fill="#2A5580" points="208.8,352.1 117.6,352.1 122,288.6 333.5,205.9 477.7,284.5 487.3,349.7 "/>
<circle fill="#010101" cx="373.3" cy="286.4" r="13.4"/>
<circle fill="#010101" cx="293.7" cy="286.1" r="13.4"/>
<circle fill="#FFFFFF" cx="288.1" cy="283.2" r="6.7"/>
<circle fill="#FFFFFF" cx="300.1" cy="289.9" r="3.2"/>
<circle fill="#FFFFFF" cx="369.1" cy="283.2" r="6.7"/>
<circle fill="#FFFFFF" cx="381.1" cy="289.9" r="3.2"/>
<polygon fill="#BBD095" points="399.5,351.5 399.5,441.9 410.8,441.9 410.8,351.2 "/>
<polygon fill="#BBD095" points="406.9,438.8 428.8,438.8 425.1,484.5 384.6,484.5 381.2,438.8 391.7,438.8 "/>
<polygon fill="#BBD095" points="406.4,446.2 422,446.2 421,474.7 389.6,474.9 388.1,446.2 395.6,446.2 "/>
<path fill="#57566F" d="M376.7,567.9h57c19,0,34.4-15.4,34.4-34.4v-69.8c0-0.1,0-0.1,0-0.2l0,0c0.1-0.5-0.3-1-0.8-1.1
	c-31.1-6.5-79.7-10.7-125.9-0.4l0-0.3v70.8C341.4,552.1,357.2,567.9,376.7,567.9z"/>
<path fill="#6D6D83" d="M468.1,463.8c0,0,3.8,142.2-121.9,86.2c0,0,5.5,14.1,25.2,17.6l68-0.2c0,0,24.1-3.1,28.4-29.5
	c0-0.2,0.3-3.4,0.3-3.6L468.1,463.8z"/>
<path fill="#0D4D76" d="M454.6,440.6c0,0,57.4-46.5,76-25.3S454.6,440.6,454.6,440.6z"/>
<path fill="#EC6763" d="M435.8,423.5c0,0,47.6-56.4,69.8-39.1C527.8,401.7,435.8,423.5,435.8,423.5z"/>
<path fill="#FFD572" d="M377.1,417.8c0,0-47.6-56.4-69.8-39.1C285.1,396,377.1,417.8,377.1,417.8z"/>
<path fill="#799351" d="M371.5,438.9c0,0-57.4-46.5-76-25.3C277,434.8,371.5,438.9,371.5,438.9z"/>
<polygon fill="#85A9AC" points="444.8,647.3 126,647.3 35.6,479.8 102.7,267.1 324.5,208.8 122,288.6 108.6,479.4 153,593.7 
	471.2,591.2 "/>
<path fill="#BBD095" d="M334.4,205.9c0,0,0.5-29.7,21-23.8c0.9,0.2,1.7-0.4,1.7-1.3c-0.3-5-2.2-17.8-15.6-11.3c0,0-0.1,0-0.2,0.1
	C340.2,170,327.2,175,334.4,205.9z"/>
<path fill="#BBD095" d="M334.4,205.9c0,0,7.6-10,14.9-11.4c2.6-0.5,3.5,3.4,0.9,4.1C346.5,199.7,341.2,201.7,334.4,205.9z"/>
<path fill="#BBD095" d="M333.5,205.9c0,0-7.6-10-14.9-11.4c-2.6-0.5-3.5,3.4-0.9,4.1C321.5,199.7,326.7,201.7,333.5,205.9z"/>
<path fill="#BBD095" d="M423.9,367.9c0,0,17.5,20.8-10.8,26.3C413.1,394.3,437.4,390.2,423.9,367.9z"/>
<path fill="#BBD095" d="M413.6,411.9c0,0,17.5,20.8-10.8,26.3C402.8,438.3,427.1,434.2,413.6,411.9z"/>
<path fill="#BBD095" d="M385.4,383.4c0,0-17.5,20.8,10.8,26.3C396.2,409.7,371.9,405.6,385.4,383.4z"/>
<path fill="#BBD095" d="M393.5,351.2c0,0-17.5,20.8,10.8,26.3C404.3,377.5,380,373.4,393.5,351.2z"/>
<path fill="#FFFFFF" d="M315.7,322.6c2,2.6,17.4,21.7,33.3,1.4c0.5-0.7,0.1-1.7-0.7-1.7h-0.5c-0.3,0-0.5,0.1-0.7,0.3
	c-2,2.3-14.5,15.8-30-1.4c-0.6-0.6-1.6-0.2-1.6,0.7l0,0C315.5,322.2,315.6,322.4,315.7,322.6z"/>
<text transform="matrix(1 0 0 1 532.9789 498.5457)" fill="#FCEE21" font-family="'Avenir-Roman'" font-size="176.1684px">E</text>
<text transform="matrix(1 0 0 1 637.4443 498.5457)" fill="#FCEE21" font-family="'Avenir-Roman'" font-size="176.1684px">A</text>
<text transform="matrix(1 0 0 1 761.4658 498.5457)" fill="#FCEE21" font-family="'Avenir-Roman'" font-size="176.1684px">R</text>
<text transform="matrix(1 0 0 1 865.9345 498.5457)" fill="#FCEE21" font-family="'Avenir-Roman'" font-size="176.1684px">T</text>
<text transform="matrix(1 0 0 1 560.6581 612.8328)" fill="#FCEE21" font-family="'Avenir-Roman'" font-size="125.9634px">S</text>
<text transform="matrix(1 0 0 1 630.6933 612.8328)" fill="#FCEE21" font-family="'Avenir-Roman'" font-size="125.9634px">t</text>
<text transform="matrix(1 0 0 1 675.0312 612.8328)" fill="#FCEE21" font-family="'Avenir-Roman'" font-size="125.9634px">u</text>
<text transform="matrix(1 0 0 1 745.0673 612.8328)" fill="#FCEE21" font-family="'Avenir-Roman'" font-size="125.9634px">d</text>
<text transform="matrix(1 0 0 1 822.1552 612.8328)" fill="#FCEE21" font-family="'Avenir-Roman'" font-size="125.9634px">i</text>
<text transform="matrix(1 0 0 1 852.3847 612.8328)" fill="#FCEE21" font-family="'Avenir-Roman'" font-size="125.9634px">o</text>
</svg>
